<?xml version="1.0" standalone="no"?>
<!DOCTYPE svg PUBLIC "-//W3C//DTD SVG 20010904//EN"
 "http://www.w3.org/TR/2001/REC-SVG-20010904/DTD/svg10.dtd">
<svg version="1.0" xmlns="http://www.w3.org/2000/svg"
 width="250.000000pt" height="250.000000pt" viewBox="0 0 250.000000 250.000000"
 preserveAspectRatio="xMidYMid meet">

<g transform="translate(0.000000,250.000000) scale(0.100000,-0.100000)"
fill="#ffffff" stroke="none">
<path d="M970 2290 c-166 -35 -281 -93 -387 -193 -211 -199 -306 -537 -273
-968 21 -284 110 -507 261 -658 49 -49 161 -131 180 -131 4 0 9 249 12 553 4
612 6 631 72 774 37 81 108 159 173 192 94 48 133 51 680 51 l512 0 0 200 0
200 -572 -1 c-514 0 -582 -2 -658 -19z"/>
<path d="M1190 1280 l0 -200 275 0 275 0 0 -215 0 -215 -272 -2 -273 -3 0
-200 0 -200 500 0 500 0 3 618 2 617 -505 0 -505 0 0 -200z"/>
</g>
</svg>
